<?xml version="1.0" encoding="UTF-8"?>
<svg id="Southwest_Logo" data-name="Southwest Logo" xmlns="http://www.w3.org/2000/svg" xmlns:xlink="http://www.w3.org/1999/xlink" viewBox="0 0 73 70.3">
  <defs>
    <style>
      .cls-1 {
        fill: url(#linear-gradient-3);
      }

      .cls-2 {
        fill: url(#linear-gradient-2);
      }

      .cls-3 {
        fill: url(#linear-gradient);
      }

      .cls-4 {
        fill: #ccc;
      }
    </style>
    <linearGradient id="linear-gradient" x1="2.01" y1="1349.78" x2="50.29" y2="1349.78" gradientTransform="translate(0 -1306.83)" gradientUnits="userSpaceOnUse">
      <stop offset="0" stop-color="#3656cc"/>
      <stop offset=".35" stop-color="#304cb2"/>
      <stop offset=".72" stop-color="#283b80"/>
    </linearGradient>
    <linearGradient id="linear-gradient-2" x1="8.88" y1="1311.4" x2="63.42" y2="1349.59" gradientTransform="translate(0 -1306.83)" gradientUnits="userSpaceOnUse">
      <stop offset=".3" stop-color="#e61c23"/>
      <stop offset=".8" stop-color="#c3161c"/>
    </linearGradient>
    <linearGradient id="linear-gradient-3" x1="42.62" y1="1306.57" x2="73.8" y2="1328.4" gradientTransform="translate(0 -1306.83)" gradientUnits="userSpaceOnUse">
      <stop offset="0" stop-color="#fdbc11"/>
      <stop offset=".25" stop-color="#fcb415"/>
      <stop offset=".8" stop-color="#f89e1c"/>
    </linearGradient>
  </defs>
  <path class="cls-4" d="M52.2,0c-6.2,0-11.6,2.2-15.6,4.4C32.5,2.2,27.5,0,20.9,0,8.1,0,0,8.1,0,22.5c0,17.2,16.6,34,36.5,47.8,20-13.4,36.5-30.3,36.5-47.8.1-14.4-8.3-22.5-20.8-22.5Z"/>
  <path class="cls-3" d="M1.9,22.8c0,17.5,18.7,34,34.4,45,4.7-3.1,9.4-6.9,13.7-10.6C29,39.7,9.1,23.7,2.2,18.1c0,1.3-.3,2.8-.3,4.7Z"/>
  <path class="cls-2" d="M69.6,30.9c-15.3-12.5-24.4-19.1-34.4-25-2.8-1.6-8.1-4.1-14.1-4.1-5.6,0-10.6,1.9-14.1,5.3-2.2,2.2-3.7,5-4.4,8.4,7.8,5.6,29.4,20.9,50.9,38.1,7.4-6.8,13.3-14.6,16.1-22.7Z"/>
  <path class="cls-1" d="M65.6,7.2c-3.4-3.4-8.1-5.3-13.7-5.3-5.9,0-10.3,1.9-13.7,3.7,5.8,3.5,18.6,10.6,32.1,20.6.3-1.2.3-2.8.3-4.1.3-6.2-1.6-11.5-5-14.9Z"/>
</svg>